<?xml version="1.0" encoding="utf-8"?>
<!-- Generator: Adobe Illustrator 25.0.0, SVG Export Plug-In . SVG Version: 6.00 Build 0)  -->
<svg version="1.1" id="Layer_1" xmlns="http://www.w3.org/2000/svg" xmlns:xlink="http://www.w3.org/1999/xlink" x="0px" y="0px"
	 viewBox="0 0 773.2 123.2" style="enable-background:new 0 0 773.2 123.2;" xml:space="preserve">
<style type="text/css">
	.st0{fill:#3333CC;}
</style>
<g>
	<path class="st0" d="M89.6,83.3c-6.7,17.6-26.4,26.5-44,19.8c-8.5-3.2-15.3-9.6-19-17.9c-3.7-8.3-4-17.6-0.8-26.1l0.2-0.6l-8.3-3.1
		l-0.2,0.6c-8.4,22.2,2.8,47,24.9,55.5c4.9,1.9,10,2.8,15.2,2.8c17.8,0,33.9-11.1,40.2-27.7l0.2-0.6l-8.3-3.1L89.6,83.3z"/>
	<path class="st0" d="M22.5,22c2.1-2.1,4.1-4.1,8.6-4.1s6.5,2,8.6,4.1l0.7,0.7l6.3-6.3L46,15.7C43.5,13.2,39.3,9,31.1,9
		s-12.4,4.2-14.9,6.7l-0.7,0.7l6.3,6.3L22.5,22z"/>
	<path class="st0" d="M105.4,15.7C102.9,13.2,98.7,9,90.5,9c-6.9,0-11,3.1-13.5,5.4c-1,0.9-1.9,1.9-2.9,3.1l-2,2.4
		c-0.6,0.8-1.3,1.6-1.8,2.4L31.2,77.8h55.3v-8.8H48.2l29.3-41.6c0.4-0.6,0.9-1.2,1.4-1.8l2-2.4c0.7-0.9,1.4-1.6,2.1-2.3
		c1.7-1.6,3.7-3,7.5-3c4.5,0,6.5,2,8.6,4.1l0.7,0.7l6.3-6.3L105.4,15.7z"/>
	<g>
		<path d="M153,65c0,9.3,4.6,15.3,12.3,15.3c4.4,0,7.8-2.4,11.7-8.8l6.5,4.9c-4.6,8-10.1,11.5-18.1,11.5c-5.9,0-10.8-2.2-14.8-6.5
			c-3.9-4.4-5.8-9.8-5.8-16.4c0-6.6,1.9-12.1,5.8-16.4c3.9-4.4,8.8-6.5,14.8-6.5c7.9,0,13.5,3.5,18.1,11.5l-6.5,4.9
			c-3.9-6.4-7.3-8.8-11.7-8.8C157.6,49.7,153,55.7,153,65z"/>
		<path d="M196.4,69.2v17.8h-7.8V39.8h7.8V58h1.8c2.8-3.1,6.5-4.8,10.5-4.8c8.1,0,13.2,5.1,13.2,13.4v20.3h-7.8V68.3
			c0-5.5-2.2-7.9-6.5-7.9C203.8,60.4,200.4,63,196.4,69.2z"/>
		<path d="M226.9,59.9c4.9-4.3,11.5-6.6,18.8-6.6c8.8,0,13.8,4.5,13.8,11.9v13.3c0,1.8,0.5,2.5,1.8,2.5c0.4,0,0.8-0.1,1.2-0.3
			c0.5-0.2,1.5-1,3.2-2.2l3.5,5.1c-3.9,3.5-6.1,4.5-9.4,4.5c-3.2,0-5.9-1.8-7.1-4.8h-2.4c-5.1,3.5-9.1,4.8-13.1,4.8
			c-6.8,0-10.9-3.3-10.9-8.8c0-4.9,3.6-8.4,10.7-10.1l15.2-3.8v-0.3c0-3.3-2.3-4.7-7.2-4.7s-9.9,2.1-14.2,6L226.9,59.9z M252.1,75.1
			v-2.2l-1.8-1.1l-11.9,2.9c-2.5,0.7-4.1,2-4.1,3.8c0,2.1,1.3,3.1,3.8,3.1C241.9,81.6,246.5,79.4,252.1,75.1z"/>
		<path d="M307,64.9l-7.1,3.2c-1.5-5.5-3.5-7.4-6.8-7.4c-1.7,0-3.5,0.8-5.5,2.2s-4.7,4.2-8.1,8.2v15.8h-7.8V54.4h7.8v6h1.8
			c4.3-4.7,8.7-7.1,13.3-7.1C300.8,53.3,305,57.2,307,64.9z"/>
		<path d="M333.3,39.8v38.7l2,2h10.6v6.5h-34.4v-6.5h12.9l2-2V48.3l-2-2h-12.9v-6.5H333.3z"/>
		<path d="M374.4,54.4v24.1l2,2H387v6.5h-34.4v-6.5h12.9l2-2V62.8l-2-2h-12.9v-6.5H374.4z M369.4,48.3c-3.6,0-6.5-2.8-6.5-6.5
			c0-3.8,2.8-6.7,6.5-6.7c3.9,0,6.7,2.8,6.7,6.7C376.1,45.5,373.1,48.3,369.4,48.3z"/>
		<path d="M428.2,81.4c-5.5,4.4-11.1,6.6-16.9,6.6c-5.7,0-10.4-1.6-14.1-4.9c-3.6-3.3-5.5-7.5-5.5-12.5s1.8-9.1,5.3-12.4s8-5,13.3-5
			c5.8,0,10.3,1.9,13.8,5.7c3.5,3.8,5.1,8.6,5.1,14.4h-27.8l-1.5,1.1c1.8,4.1,5.8,6.5,11.4,6.5c4.6,0,8.7-1.5,13.1-4.8L428.2,81.4z
			 M401.4,67.3h17.8l0.7-1.6c-1.8-3.3-5.5-5.4-9.6-5.4c-4.6,0-8.7,2.3-10.3,6L401.4,67.3z"/>
		<path d="M485.1,43.1v34.3l2.3,2.3h22.3v7.2h-32.4V43.1H485.1z"/>
		<path d="M551.3,81.4c-5.5,4.4-11.1,6.6-16.9,6.6c-5.7,0-10.4-1.6-14.1-4.9c-3.6-3.3-5.5-7.5-5.5-12.5s1.8-9.1,5.3-12.4s8-5,13.3-5
			c5.8,0,10.3,1.9,13.8,5.7c3.5,3.8,5.1,8.6,5.1,14.4h-27.8l-1.5,1.1c1.8,4.1,5.8,6.5,11.4,6.5c4.6,0,8.7-1.5,13.1-4.8L551.3,81.4z
			 M524.6,67.3h17.8l0.7-1.6c-1.8-3.3-5.5-5.4-9.6-5.4c-4.6,0-8.7,2.3-10.3,6L524.6,67.3z"/>
		<path d="M583.1,57.4V39.8h7.8v47.1h-7.8v-3h-1.8c-2.2,2.5-6.3,4.1-10.5,4.1c-4.8,0-8.8-1.7-12.1-5c-3.2-3.3-4.8-7.5-4.8-12.4
			s1.6-9.1,4.8-12.4c3.2-3.3,7.2-5,12.1-5c4.2,0,8.3,1.6,10.5,4.1H583.1z M561.9,70.6c0,6.1,4,10.4,9.8,10.4c4.3,0,8.1-2.2,11.5-7.1
			v-6.6c-3.4-4.8-7.1-7.1-11.5-7.1C565.9,60.3,561.9,64.6,561.9,70.6z"/>
		<path d="M633.4,81.4c-5.5,4.4-11.1,6.6-16.9,6.6c-5.7,0-10.4-1.6-14.1-4.9c-3.6-3.3-5.5-7.5-5.5-12.5s1.8-9.1,5.3-12.4s8-5,13.3-5
			c5.8,0,10.3,1.9,13.8,5.7c3.5,3.8,5.1,8.6,5.1,14.4h-27.8l-1.5,1.1c1.8,4.1,5.8,6.5,11.4,6.5c4.6,0,8.7-1.5,13.1-4.8L633.4,81.4z
			 M606.7,67.3h17.8l0.7-1.6c-1.8-3.3-5.5-5.4-9.6-5.4c-4.6,0-8.7,2.3-10.3,6L606.7,67.3z"/>
		<path d="M676.4,64.9l-7.1,3.2c-1.5-5.5-3.5-7.4-6.8-7.4c-1.7,0-3.5,0.8-5.5,2.2s-4.7,4.2-8.1,8.2v15.8h-7.8V54.4h7.8v6h1.8
			c4.3-4.7,8.7-7.1,13.3-7.1C670.2,53.3,674.4,57.2,676.4,64.9z"/>
		<path d="M715.5,81.4c-5.5,4.4-11.1,6.6-16.9,6.6c-5.7,0-10.4-1.6-14.1-4.9c-3.6-3.3-5.5-7.5-5.5-12.5s1.8-9.1,5.3-12.4s8-5,13.3-5
			c5.8,0,10.3,1.9,13.8,5.7c3.5,3.8,5.1,8.6,5.1,14.4h-27.8l-1.5,1.1c1.8,4.1,5.8,6.5,11.4,6.5c4.6,0,8.7-1.5,13.1-4.8L715.5,81.4z
			 M688.7,67.3h17.8l0.7-1.6c-1.8-3.3-5.5-5.4-9.6-5.4c-4.6,0-8.7,2.3-10.3,6L688.7,67.3z"/>
		<path d="M758.5,64.9l-7.1,3.2c-1.5-5.5-3.5-7.4-6.8-7.4c-1.7,0-3.5,0.8-5.5,2.2c-2,1.5-4.7,4.2-8.1,8.2v15.8H723V54.4h7.8v6h1.8
			c4.3-4.7,8.7-7.1,13.3-7.1C752.3,53.3,756.5,57.2,758.5,64.9z"/>
	</g>
</g>
</svg>
