<?xml version="1.0" encoding="utf-8"?>
<!-- Generator: Adobe Illustrator 25.0.0, SVG Export Plug-In . SVG Version: 6.00 Build 0)  -->
<svg version="1.1" id="Layer_1" xmlns="http://www.w3.org/2000/svg" xmlns:xlink="http://www.w3.org/1999/xlink" x="0px" y="0px"
	 viewBox="0 0 1000 1000" style="enable-background:new 0 0 1000 1000;" xml:space="preserve">
<style type="text/css">
	.st0{fill:#007BFF;}
</style>
<g>
	<g>
		<path class="st0" d="M477.2,950.7c-43.3,0-87.3-7.7-130.1-24c-189.4-72-285-284.7-213-474.1l62.1,23.6
			c-59,155.2,19.3,329.5,174.5,388.4s329.5-19.3,388.4-174.5l62.1,23.6C765.5,860.3,625.5,950.7,477.2,950.7z"/>
	</g>
	<g>
		<path class="st0" d="M327.7,155.8l-2.8-2.8c-18.2-18.3-37-37.3-78.3-37.3c-41.3,0-60.1,18.9-78.3,37.3l-2.8,2.8l-46.9-46.9
			l2.7-2.7c21.1-21.3,56.5-56.9,125.4-56.9S350.9,84.9,372,106.2l2.7,2.7L327.7,155.8z"/>
	</g>
	<g>
		<path class="st0" d="M721.9,635.1H257.6l333.2-473.5c5-7,10.2-13.9,15.8-20.5l17.1-20.4c8.2-9.8,16.3-18.4,24.7-26.2
			c20.8-19.4,55.2-45.1,113.4-45.1c68.9,0,104.3,35.6,125.4,56.9l2.7,2.7l-47,46.9l-2.8-2.8c-18.2-18.3-37-37.3-78.3-37.3
			c-34.1,0-52.9,13.1-68.2,27.3c-6.4,6-12.6,12.6-19.1,20.3l-17.1,20.4c-4.3,5.2-8.5,10.6-12.4,16.1L385.5,568.7h336.4V635.1z"/>
	</g>
</g>
</svg>
