<?xml version="1.0" encoding="utf-8"?>
<!-- Generator: Adobe Illustrator 25.0.0, SVG Export Plug-In . SVG Version: 6.00 Build 0)  -->
<svg version="1.1" id="Layer_1" xmlns="http://www.w3.org/2000/svg" xmlns:xlink="http://www.w3.org/1999/xlink" x="0px" y="0px"
	 viewBox="0 0 1000 1000" style="enable-background:new 0 0 1000 1000;" xml:space="preserve">
<style type="text/css">
	.st0{fill:#000F9F;}
</style>
<g>
	<g>
		<path class="st0" d="M477.24,950.73c-43.31,0-87.31-7.71-130.14-23.98c-189.43-71.98-284.98-284.66-213-474.09l62.07,23.59
			c-58.98,155.21,19.31,329.46,174.52,388.43c155.21,58.97,329.46-19.31,388.43-174.52l62.07,23.59
			C765.48,860.35,625.49,950.73,477.24,950.73z"/>
	</g>
	<g>
		<path class="st0" d="M327.69,155.78l-2.82-2.83c-18.2-18.32-37.02-37.27-78.31-37.27c-41.3,0-60.11,18.95-78.31,37.27l-2.82,2.83
			l-46.95-46.95l2.66-2.67c21.13-21.28,56.49-56.88,125.43-56.88c68.94,0,104.3,35.61,125.43,56.88l2.66,2.67L327.69,155.78z"/>
	</g>
	<g>
		<path class="st0" d="M721.9,635.09H257.62l333.15-473.5c4.95-7.03,10.25-13.94,15.77-20.52l17.13-20.45
			c8.21-9.8,16.3-18.38,24.73-26.23c20.8-19.37,55.19-45.12,113.41-45.12c68.94,0,104.3,35.61,125.43,56.89l2.65,2.67l-46.95,46.95
			l-2.82-2.83c-18.2-18.33-37.02-37.27-78.32-37.27c-34.12,0-52.92,13.13-68.16,27.32c-6.4,5.96-12.64,12.59-19.07,20.27
			l-17.13,20.45c-4.32,5.16-8.49,10.58-12.37,16.09L385.53,568.68H721.9V635.09z"/>
	</g>
</g>
</svg>
