<svg id="Layer_1" data-name="Layer 1" xmlns="http://www.w3.org/2000/svg" viewBox="0 0 773.2 123.16"><defs><style>.cls-1{fill:#33c;}</style></defs><path class="cls-1" d="M83.24,79.91A28.8,28.8,0,0,1,29.4,59.45l.17-.47-7-2.65-.18.46a36.27,36.27,0,0,0,67.8,25.77l.17-.47-7-2.65Z"/><path class="cls-1" d="M26.57,28.16c1.77-1.79,3.45-3.48,7.26-3.48s5.49,1.69,7.27,3.48l.63.63L47,23.52l-.61-.62c-2.11-2.12-5.64-5.68-12.56-5.68S23.38,20.78,21.27,22.9l-.61.62,5.28,5.27Z"/><path class="cls-1" d="M96.53,22.9c-2.11-2.12-5.64-5.68-12.56-5.68a15.82,15.82,0,0,0-11.38,4.53,27.83,27.83,0,0,0-2.44,2.59l-1.67,2c-.55.66-1.07,1.34-1.56,2L34,75.22H80.59V67.76H48.32L73,32.66c.37-.53.76-1,1.18-1.54l1.66-2a21.26,21.26,0,0,1,1.82-1.92A8.45,8.45,0,0,1,84,24.68c3.81,0,5.49,1.69,7.27,3.48l.62.63,5.28-5.27Z"/><path d="M143.89,31.67V71.61l2.69,2.69h26v8.42H134.84v-51Z"/><path d="M217.51,76.27c-6.45,5.1-13,7.7-19.71,7.7s-12.09-1.88-16.39-5.73a18.88,18.88,0,0,1-6.36-14.51,18.83,18.83,0,0,1,6.18-14.42,21.91,21.91,0,0,1,15.5-5.82c6.71,0,12,2.24,16,6.63s6,10,6,16.74H186.34l-1.79,1.26c2.06,4.74,6.8,7.61,13.25,7.61,5.38,0,10.12-1.7,15.23-5.55ZM186.34,59.79h20.78l.8-1.88a12.62,12.62,0,0,0-11.19-6.27c-5.38,0-10.12,2.69-12,7Z"/><path d="M256.28,48.24V27.82h9.14v54.9h-9.14v-3.5h-2.15c-2.59,2.87-7.34,4.75-12.27,4.75a18.85,18.85,0,0,1-14.06-5.82,20.17,20.17,0,0,1-5.55-14.42,20.17,20.17,0,0,1,5.55-14.42,18.85,18.85,0,0,1,14.06-5.82c4.93,0,9.68,1.88,12.27,4.75ZM231.65,63.73c0,7.07,4.66,12.09,11.47,12.09,5,0,9.4-2.6,13.34-8.24v-7.7c-3.94-5.64-8.33-8.24-13.34-8.24C236.31,51.64,231.65,56.65,231.65,63.73Z"/><path d="M311.36,76.27c-6.45,5.1-13,7.7-19.7,7.7s-12.09-1.88-16.39-5.73a18.88,18.88,0,0,1-6.36-14.51,18.83,18.83,0,0,1,6.18-14.42,21.88,21.88,0,0,1,15.49-5.82c6.72,0,12,2.24,16,6.63s6,10,6,16.74H280.19l-1.79,1.26c2.06,4.74,6.81,7.61,13.26,7.61,5.37,0,10.12-1.7,15.22-5.55ZM280.19,59.79H301l.81-1.88a12.62,12.62,0,0,0-11.2-6.27c-5.37,0-10.12,2.69-12,7Z"/><path d="M357.84,57l-8.33,3.67c-1.7-6.35-4-8.59-8-8.59-2,0-4.12.89-6.45,2.59s-5.46,4.93-9.4,9.59V82.72h-9.14v-38h9.14v7h2.06c5-5.46,10.12-8.24,15.49-8.24C350.68,43.49,355.6,48.06,357.84,57Z"/><path d="M403.42,76.27c-6.44,5.1-13,7.7-19.7,7.7s-12.09-1.88-16.39-5.73A18.88,18.88,0,0,1,361,63.73a18.83,18.83,0,0,1,6.18-14.42,21.91,21.91,0,0,1,15.5-5.82c6.71,0,12,2.24,16,6.63s6,10,6,16.74H372.26l-1.79,1.26c2.06,4.74,6.8,7.61,13.25,7.61,5.37,0,10.12-1.7,15.23-5.55ZM372.26,59.79H393l.81-1.88a12.62,12.62,0,0,0-11.19-6.27c-5.38,0-10.12,2.69-12,7Z"/><path d="M449.9,57l-8.33,3.67c-1.7-6.35-4-8.59-8-8.59-2,0-4.12.89-6.44,2.59s-5.47,4.93-9.41,9.59V82.72h-9.13v-38h9.13v7h2.06c5-5.46,10.12-8.24,15.5-8.24C442.74,43.49,447.66,48.06,449.9,57Z"/><path d="M518.23,75.73c-5,4.66-11.73,7-20.24,7H483v-51H498c8.51,0,15.23,2.33,20.24,7s7.62,10.84,7.62,18.54S523.34,71.07,518.23,75.73ZM494.86,39.91l-2.69,2.68v29.2l2.69,2.69H498c11.38,0,18.27-6.63,18.27-17.29S509.37,39.91,498,39.91Z"/><path d="M572,76.27c-6.45,5.1-13,7.7-19.7,7.7s-12.09-1.88-16.39-5.73a18.88,18.88,0,0,1-6.36-14.51,18.83,18.83,0,0,1,6.18-14.42,21.88,21.88,0,0,1,15.49-5.82c6.72,0,12,2.24,16,6.63s6,10,6,16.74H540.8L539,68.12c2.06,4.74,6.81,7.61,13.26,7.61,5.37,0,10.12-1.7,15.22-5.55ZM540.8,59.79h20.78l.81-1.88a12.62,12.62,0,0,0-11.2-6.27c-5.37,0-10.12,2.69-12,7Z"/><path d="M603,69l-12.62-2.15c-8.6-1.52-12.45-5.1-12.45-11.19,0-7.43,7.34-12.18,18-12.18a34.12,34.12,0,0,1,18.9,5.28l-4.12,7.88c-5.65-3.67-9.59-5-15.32-5-5.37,0-8.6,1.25-8.6,3.49,0,1.79,1.08,2.69,5.29,3.4L606.36,61c6.71,1.17,10.39,4.93,10.39,10.66q0,5.51-5.38,8.87c-3.58,2.24-8.06,3.4-13.52,3.4a44.47,44.47,0,0,1-21.94-5.73l4.39-8.33c6.35,4.57,11,6.09,17.82,6.09,5.73,0,9.76-1.43,9.76-3.67C607.88,70.45,606.9,69.64,603,69Z"/><path d="M645.58,44.74V72.86l2.33,2.33h12.36v7.53H620.15V75.19h15l2.33-2.33V54.59l-2.33-2.32h-15V44.74Zm-5.82-7.07a7.46,7.46,0,0,1-7.52-7.53,7.66,7.66,0,1,1,7.52,7.53Z"/><path d="M697.44,79.22h-2.15C692.69,82.09,687.94,84,683,84A18.83,18.83,0,0,1,669,78.15a20.13,20.13,0,0,1-5.56-14.42A20.13,20.13,0,0,1,669,49.31,18.83,18.83,0,0,1,683,43.49c4.92,0,9.67,1.88,12.27,4.75h2.15V44.83h9.13V80.48A18.23,18.23,0,0,1,700,95.07c-4.38,3.86-9.85,5.74-16.39,5.74-8.68,0-15.85-2.69-20.5-7.71l5.46-6.44a21.57,21.57,0,0,0,15,6.35c8.6,0,13.8-4.56,13.8-12.09Zm-13.17-3.4c5,0,9.4-2.6,13.35-8.24v-7.7c-4-5.64-8.33-8.24-13.35-8.24-6.81,0-11.46,5-11.46,12.09S677.46,75.82,684.27,75.82Z"/><path d="M723.32,62V82.72h-9.14v-38h9.14V49h2.15a16.4,16.4,0,0,1,12.27-5.55c9.4,0,15.4,5.91,15.4,15.58V82.72H744V61c0-6.36-2.51-9.22-7.62-9.22C732,51.82,728,54.86,723.32,62Z"/></svg>